<svg width="16" height="16" viewBox="0 0 16 16" fill="none" xmlns="http://www.w3.org/2000/svg">
<g clip-path="url(#clip0)">
<path fill-rule="evenodd" clip-rule="evenodd" d="M7.97578 0C3.57211 0 0.000244141 3.57186 0.000244141 7.97553C0.000244141 11.4985 2.29994 14.4832 5.43144 15.5596C5.82287 15.6086 5.96966 15.3639 5.96966 15.1682C5.96966 14.9725 5.96966 14.4832 5.96966 13.7982C3.76783 14.2875 3.27853 12.7217 3.27853 12.7217C2.93602 11.792 2.3978 11.5474 2.3978 11.5474C1.66385 11.0581 2.44673 11.0581 2.44673 11.0581C3.2296 11.107 3.66997 11.8899 3.66997 11.8899C4.40391 13.1131 5.5293 12.7706 5.96966 12.5749C6.01859 12.0367 6.26324 11.6942 6.45896 11.4985C4.69749 11.3028 2.83816 10.6177 2.83816 7.53517C2.83816 6.65443 3.13174 5.96942 3.66997 5.38226C3.62104 5.23547 3.32746 4.40367 3.76783 3.32722C3.76783 3.32722 4.45284 3.1315 5.96966 4.15902C6.60575 3.9633 7.29076 3.91437 7.97578 3.91437C8.66079 3.91437 9.34581 4.01223 9.98189 4.15902C11.4987 3.1315 12.1837 3.32722 12.1837 3.32722C12.6241 4.40367 12.3305 5.23547 12.2816 5.43119C12.7709 5.96942 13.1134 6.70336 13.1134 7.5841C13.1134 10.6667 11.2541 11.3028 9.4926 11.4985C9.78618 11.7431 10.0308 12.2324 10.0308 12.9664C10.0308 14.0428 10.0308 14.8746 10.0308 15.1682C10.0308 15.3639 10.1776 15.6086 10.5691 15.5596C13.7495 14.4832 16.0002 11.4985 16.0002 7.97553C15.9513 3.57186 12.3794 0 7.97578 0Z" fill="#424242"/>
</g>
<defs>
<clipPath id="clip0">
<rect width="16" height="16" fill="white" transform="translate(0.000244141)"/>
</clipPath>
</defs>
</svg>
