<?xml version="1.0" ?><svg id="icon" style="enable-background:new 0 0 512 512;" version="1.1" viewBox="0 0 512 512" xml:space="preserve" xmlns="http://www.w3.org/2000/svg" xmlns:xlink="http://www.w3.org/1999/xlink"><path d="M426.987793,152.1726074L323.1137695,75.9147949c-1.2011719-0.8818359-2.6523438-1.3574219-4.1425781-1.3574219H89.1547852  c-3.8662109,0-7,3.1337891-7,7V430.442627c0,3.8662109,3.1337891,7,7,7h333.6904297c3.8662109,0,7-3.1337891,7-7V157.8151855  C429.8452148,155.5866699,428.7836914,153.4914551,426.987793,152.1726074z M157.159668,88.557373h58.1679688v43.7758789H157.159668  V88.557373z M157.159668,146.333252h65.1679688c3.8662109,0,7-3.1337891,7-7V88.557373h67.4052734v101.5517578H157.159668  V146.333252z M415.8452148,423.442627H96.1547852V88.557373h47.0048828v108.5517578c0,3.8662109,3.1337891,7,7,7h153.5732422  c3.8662109,0,7-3.1337891,7-7V88.557373h5.9443359l99.1679688,72.8027344V423.442627z"/></svg>