<?xml version="1.0" ?><svg height="32px" version="1.1" viewBox="0 0 32 32" width="32px" xmlns="http://www.w3.org/2000/svg" xmlns:sketch="http://www.bohemiancoding.com/sketch/ns" xmlns:xlink="http://www.w3.org/1999/xlink"><title/><desc/><defs/><g fill="none" fill-rule="evenodd" id="Page-1" stroke="none" stroke-width="1"><g fill="#ffffff" id="icon-96-folders"><path d="M1,15 L1,8.99180311 C1,8.45530558 1.44401481,8 1.99173483,8 L12.4000244,8 L14.3599854,12 L26.9970172,12 C27.5461723,12 28,12.4481055 28,13.0008717 L28,15 L1,15 L1,15 Z M1,16 L1,27.0081969 C1,27.5559546 1.44610862,28 1.99296544,28 L27.0070346,28 C27.5554342,28 28,27.5553691 28,26.9991283 L28,16 L1,16 L1,16 Z M3,6 L3,4.991155 C3,3.88967395 3.89666625,3 5.00276013,3 L16,3 L18,7 L29.9941413,7 C31.1029399,7 32,7.8932319 32,8.99508929 L32,23.0049107 C32,24.1073772 31.1075748,25 30.0067126,25 L30,25 L30,24 L30.0070346,24 C30.5554342,24 31,23.5553691 31,22.9991283 L31,9.00087166 C31,8.4481055 30.5461723,8 29.9970172,8 L17.3599854,8 L15.4000244,4 L4.99173483,4 C4.44401481,4 4,4.45530558 4,4.99180311 L4,6 L3,6 L3,6 L3,6 Z M15,11 L13,7 L2.00276013,7 C0.896666251,7 0,7.88967395 0,8.991155 L0,27.008845 C0,28.1085295 0.899712682,29 1.99328744,29 L27.0067126,29 C28.1075748,29 29,28.1073772 29,27.0049107 L29,12.9950893 C29,11.8932319 28.1029399,11 26.9941413,11 L15,11 L15,11 Z" id="folders"/></g></g></svg>