<?xml version="1.0" encoding="UTF-8" standalone="no"?><!-- Generator: Gravit.io --><svg xmlns="http://www.w3.org/2000/svg" xmlns:xlink="http://www.w3.org/1999/xlink" style="isolation:isolate" viewBox="0 0 32 32" width="32pt" height="32pt"><defs><clipPath id="_clipPath_uzYoviOc84ymUDXhuYlSwzftTOHnTy1R"><rect width="32" height="32"/></clipPath></defs><g clip-path="url(#_clipPath_uzYoviOc84ymUDXhuYlSwzftTOHnTy1R)"><g><path d=" M 1.938 14.25 L 1.938 8.617 C 1.938 8.114 2.354 7.687 2.867 7.687 L 12.625 7.687 L 14.462 11.437 L 26.31 11.437 C 26.825 11.437 27.25 11.858 27.25 12.376 L 27.25 14.25 L 1.938 14.25 L 1.938 14.25 Z  M 1.938 15.187 L 1.938 25.508 C 1.938 26.021 2.356 26.437 2.868 26.437 L 26.319 26.437 C 26.833 26.437 27.25 26.021 27.25 25.499 L 27.25 15.187 L 1.938 15.187 L 1.938 15.187 Z  M 3.812 5.812 L 3.812 4.867 C 3.812 3.834 4.653 3 5.69 3 L 16 3 L 17.875 6.75 L 29.12 6.75 C 30.159 6.75 31 7.587 31 8.62 L 31 21.755 C 31 22.788 30.163 23.625 29.131 23.625 L 29.125 23.625 L 29.125 22.687 L 29.132 22.687 C 29.646 22.687 30.062 22.271 30.062 21.749 L 30.062 8.626 C 30.062 8.108 29.637 7.687 29.122 7.687 L 17.275 7.687 L 15.438 3.937 L 5.68 3.937 C 5.166 3.937 4.75 4.364 4.75 4.867 L 4.75 5.812 L 3.812 5.812 L 3.812 5.812 L 3.812 5.812 Z  M 15.062 10.5 L 13.187 6.75 L 2.878 6.75 C 1.841 6.75 1 7.584 1 8.617 L 1 25.508 C 1 26.539 1.843 27.375 2.869 27.375 L 26.319 27.375 C 27.351 27.375 28.187 26.538 28.187 25.505 L 28.187 12.37 C 28.187 11.337 27.347 10.5 26.307 10.5 L 15.062 10.5 L 15.062 10.5 Z " fill-rule="evenodd" fill="rgb(0,0,0)" vector-effect="non-scaling-stroke" stroke-width="1" stroke="rgb(255,255,255)" stroke-linejoin="miter" stroke-linecap="butt" stroke-miterlimit="4"/></g></g></svg>