<svg width="16" height="16" viewBox="0 0 16 16" fill="none" xmlns="http://www.w3.org/2000/svg">
<path fill-rule="evenodd" clip-rule="evenodd" d="M1.5 2H14.5L15 2.5V8.00305C14.6892 7.76964 14.3534 7.57413 14 7.41955V3H2V12H7C7 12.326 7.03187 12.6527 7.09608 12.9755C7.24266 13.7124 7.55277 14.4037 8 15H4V14H7V13H1.5L1 12.5V2.5L1.5 2Z" fill="#C5C5C5"/>
<path d="M12 8C11.2089 8 10.4355 8.23455 9.77769 8.67407C9.11989 9.1136 8.60717 9.73833 8.30442 10.4692C8.00167 11.2001 7.92254 12.0045 8.07688 12.7804C8.23122 13.5563 8.6122 14.269 9.17161 14.8284C9.73102 15.3878 10.4437 15.7688 11.2196 15.9231C11.9955 16.0774 12.7998 15.9983 13.5307 15.6956C14.2616 15.3928 14.8864 14.8801 15.3259 14.2223C15.7654 13.5645 16 12.7911 16 12C16 10.9391 15.5785 9.92178 14.8283 9.17163C14.0782 8.42149 13.0608 8 12 8ZM12 15C11.4066 15 10.8266 14.824 10.3332 14.4944C9.83988 14.1647 9.45543 13.6962 9.22837 13.1481C9.00131 12.5999 8.94184 11.9966 9.0576 11.4147C9.17335 10.8327 9.45908 10.2982 9.87864 9.87866C10.2982 9.4591 10.8327 9.17337 11.4147 9.05762C11.9966 8.94186 12.5999 9.00133 13.148 9.22839C13.6962 9.45546 14.1647 9.8399 14.4944 10.3333C14.824 10.8266 15 11.4067 15 12C15 12.7956 14.6839 13.5587 14.1213 14.1213C13.5587 14.6839 12.7956 15 12 15Z" fill="#C5C5C5"/>
<path fill-rule="evenodd" clip-rule="evenodd" d="M12.3785 11L14 12.7307L13.7477 13L12 11.1347L12 10.8653L13.7477 9L14 9.26931L12.3785 11Z" fill="#C5C5C5"/>
<path fill-rule="evenodd" clip-rule="evenodd" d="M11.6288 13L10 11.2638L10.2475 11L12 12.8681L12 13.1319L10.2475 15L10 14.7362L11.6288 13Z" fill="#C5C5C5"/>
</svg>
