<?xml version="1.0" ?><svg height="24px" version="1.1" viewBox="0 0 32 32" width="28px" xmlns="http://www.w3.org/2000/svg" xmlns:sketch="http://www.bohemiancoding.com/sketch/ns" xmlns:xlink="http://www.w3.org/1999/xlink"><title/><desc/><defs/><g fill="none" fill-rule="evenodd" id="Page-1" stroke="none" stroke-width="1"><g fill="#656565"><path d="M3.33066907e-16,15 L3.33066907e-16,8.991155 C3.33066907e-16,7.88967395 0.896666251,7 2.00276013,7 L13,7 L15,11 L26.9941413,11 C28.1029399,11 29,11.8932319 29,12.9950893 L29,15 L0,15 L3.33066907e-16,15 Z M0,16 L0,27.008845 C0,28.1085295 0.899712682,29 1.99328744,29 L27.0067126,29 C28.1075748,29 29,28.1073772 29,27.0049107 L29,16 L0,16 L0,16 Z M3,6 L3,4.991155 C3,3.88967395 3.89666625,3 5.00276013,3 L16,3 L18,7 L29.9941413,7 C31.1029399,7 32,7.8932319 32,8.99508929 L32,23.0049107 C32,24.1073772 31.1075748,25 30.0067126,25 L30,25 L30,13.0001262 C30,11.3432023 28.6576211,10 26.9966488,10 L16,10 L14,6 L3,6 L3,6 L3,6 Z" id="folders"/></g></g></svg>