<svg width="16" height="16" viewBox="0 0 16 16" fill="none" xmlns="http://www.w3.org/2000/svg">
<path fill-rule="evenodd" clip-rule="evenodd" d="M7.70996 3H14.5L15.01 3.5V9V13.5L14.51 14H8.74284C8.99647 13.6929 9.21739 13.3578 9.40029 13H13.99V11.49L14 7.48999V5.98999H7.68994L7.67296 6.00697C7.39684 5.81162 7.10191 5.64108 6.79144 5.4986L7.14001 5.15002L7.48999 5H13.99L14 4.01001H7.5L7.14001 3.85999L6.29004 3.01001H2V5.59971C1.6461 5.78062 1.31438 5.99874 1.01001 6.24892V2.5L1.51001 2H6.51001L6.85999 2.15002L7.70996 3Z" fill="#424242"/>
<path d="M6 10.5C6 11.3284 5.32843 12 4.5 12C3.67157 12 3 11.3284 3 10.5C3 9.67157 3.67157 9 4.5 9C5.32843 9 6 9.67157 6 10.5Z" fill="#424242"/>
<path fill-rule="evenodd" clip-rule="evenodd" d="M8 10.5C8 12.433 6.433 14 4.5 14C2.567 14 1 12.433 1 10.5C1 8.567 2.567 7 4.5 7C6.433 7 8 8.567 8 10.5ZM4.5 13C5.88071 13 7 11.8807 7 10.5C7 9.11929 5.88071 8 4.5 8C3.11929 8 2 9.11929 2 10.5C2 11.8807 3.11929 13 4.5 13Z" fill="#424242"/>
</svg>
